<svg width="284" height="49" viewBox="0 0 284 49" fill="none" xmlns="http://www.w3.org/2000/svg">
<g clip-path="url(#clip0_295_564)">
<path d="M96.405 15.4611V0.321777H104.213V2.00082H98.3359V6.87004H103.793V8.54908H98.3359V13.7961H104.338V15.4751H96.405V15.4611Z" fill="#011E41"/>
<path d="M109.292 15.4611H107.361V0.321777H109.292V15.4611Z" fill="#011E41"/>
<path d="M114.413 10.9557V11.4034C114.413 13.4602 115.714 14.1039 116.945 14.1039C118.484 14.1039 119.66 13.4602 119.66 11.6553C119.66 8.29718 112.859 8.67497 112.859 4.12757C112.859 1.4411 114.776 0.013916 117.309 0.013916C120.079 0.013916 121.632 1.35715 121.507 4.44938H119.492C119.506 2.78433 118.988 1.70695 117.155 1.70695C115.994 1.70695 114.818 2.29461 114.818 3.93168C114.818 7.26177 121.618 6.78605 121.618 11.5853C121.618 14.7755 119.408 15.8109 116.917 15.8109C112.44 15.8529 112.44 12.4248 112.482 10.9836H114.399L114.413 10.9557Z" fill="#011E41"/>
<path d="M124.739 15.4611V0.321777H132.546V2.00082H126.67V6.87004H132.127V8.54908H126.67V13.7961H132.672V15.4751H124.739V15.4611Z" fill="#011E41"/>
<path d="M146.007 0.321777V15.4611H143.362L137.388 2.32263H137.346V15.4611H135.625V0.321777H138.353L144.244 13.2924H144.286V0.321777H146.007Z" fill="#011E41"/>
<path d="M149.631 15.4611V0.321777H154.57C156.669 0.321777 157.382 1.03537 157.942 1.87489C158.474 2.68643 158.558 3.59591 158.558 3.88974C158.558 5.77866 157.914 7.03794 155.955 7.47169V7.58363C158.11 7.83548 159.061 9.13674 159.061 11.2076C159.061 15.0833 156.235 15.4611 154.514 15.4611H149.645H149.631ZM151.562 6.68814H154.374C155.885 6.66016 156.627 5.73668 156.627 4.26752C156.627 3.00824 155.913 1.98683 154.29 1.98683H151.562V6.68814ZM151.562 13.7821H154.29C156.347 13.7821 157.088 12.3129 157.088 11.2076C157.088 8.78694 155.591 8.38117 153.618 8.38117H151.562V13.7961V13.7821Z" fill="#011E41"/>
<path d="M162.279 15.4611V0.321777H170.087V2.00082H164.21V6.87004H169.667V8.54908H164.21V13.7961H170.213V15.4751H162.279V15.4611Z" fill="#011E41"/>
<path d="M175.026 8.49311V15.4611H173.095V0.321777H178.314C181.001 0.321777 181.938 2.2107 181.938 4.09962C181.938 5.89059 180.945 7.24782 179.168 7.56964V7.61161C180.917 7.89145 181.532 8.47912 181.644 11.5154C181.672 12.159 181.882 14.5377 182.176 15.4751H180.161C179.615 14.4257 179.741 12.4528 179.574 10.438C179.42 8.59105 177.936 8.5071 177.293 8.5071H175.026V8.49311ZM175.026 6.81407H177.922C179.308 6.81407 179.979 5.62475 179.979 4.29551C179.979 3.20413 179.434 1.98683 177.936 1.98683H175.026V6.81407Z" fill="#011E41"/>
<path d="M192.362 4.36551C192.362 2.58852 191.621 1.62307 189.676 1.62307C189.06 1.62307 186.877 1.72102 186.877 4.8972V10.0183C186.877 13.3344 187.843 14.1739 189.676 14.1739C191.061 14.1739 191.985 13.7961 192.376 13.5023V8.96887H189.578V7.28983H194.307V14.6496C193.076 15.3212 191.621 15.783 189.676 15.783C186.472 15.783 184.905 14.1179 184.905 9.92033V4.95317C184.905 1.9309 186.458 0 189.676 0C192.894 0 194.503 1.18932 194.377 4.36551H192.362Z" fill="#011E41"/>
<path d="M202.436 15.4611V0.321777H209.95V2.00082H204.367V6.87004H209.656V8.54908H204.367V15.4751H202.436V15.4611Z" fill="#011E41"/>
<path d="M215.435 0.321777H217.884L222.809 15.4751H220.654L219.563 11.8652H213.7L212.567 15.4751H210.622L215.435 0.321777ZM216.61 2.09876H216.568L214.204 10.1721H219.045L216.61 2.09876Z" fill="#011E41"/>
<path d="M227.286 15.4611H225.481V0.321777H228.601L232.421 13.0405H232.463L236.325 0.321777H239.515V15.4611H237.584V2.00082H237.542L233.303 15.4751H231.484L227.328 2.00082H227.286V15.4611Z" fill="#011E41"/>
<path d="M245.07 15.4611H243.139V0.321777H245.07V15.4611Z" fill="#011E41"/>
<path d="M248.638 15.4611V0.321777H250.569V13.7821H256.138V15.4611H248.638Z" fill="#011E41"/>
<path d="M264.029 0.321777H265.988L261.847 9.69642V15.4611H259.916V9.69642L255.844 0.321777H257.999L260.965 7.6396L264.029 0.321777Z" fill="#011E41"/>
<path d="M96.447 19.9106H101.106C103.037 19.9106 104.422 20.6102 105.178 22.2193C105.794 23.5066 105.85 26.5289 105.85 27.0046C105.85 30.2367 105.556 32.1117 104.926 33.1191C104.115 34.4204 102.576 35.064 99.931 35.064H96.447V19.9106ZM98.3779 33.3849H100.197C102.883 33.3849 103.863 32.3775 103.863 28.8515V25.7873C103.863 22.723 102.925 21.5897 100.896 21.5897H98.3639V33.3849H98.3779Z" fill="#011E41"/>
<path d="M109.152 35.05V19.9106H116.959V21.5897H111.083V26.4589H116.539V28.1379H111.083V33.3849H117.085V35.064H109.152V35.05Z" fill="#011E41"/>
<path d="M120.107 35.05V19.9106H124.599C126.642 19.9106 128.811 20.6662 128.811 24.2342C128.811 27.8021 126.124 28.3898 124.571 28.3898H122.024V35.064H120.094L120.107 35.05ZM122.038 26.6968H124.165C124.963 26.6968 126.852 26.4869 126.852 24.1222C126.852 21.7576 125.131 21.5897 124.711 21.5897H122.038V26.7108V26.6968Z" fill="#011E41"/>
<path d="M133.708 28.096V35.064H131.777V19.9106H136.996C139.682 19.9106 140.62 21.7996 140.62 23.6885C140.62 25.4795 139.626 26.8367 137.849 27.1585V27.2005C139.598 27.4803 140.214 28.068 140.326 31.1042C140.354 31.7479 140.564 34.1265 140.858 35.064H138.843C138.297 34.0146 138.423 32.0417 138.255 30.0269C138.101 28.1799 136.618 28.096 135.974 28.096H133.708ZM133.708 26.4169H136.604C137.989 26.4169 138.661 25.2276 138.661 23.8984C138.661 22.807 138.115 21.5897 136.618 21.5897H133.708V26.4169Z" fill="#011E41"/>
<path d="M143.796 35.05V19.9106H151.603V21.5897H145.727V26.4589H151.184V28.1379H145.727V33.3849H151.729V35.064H143.796V35.05Z" fill="#011E41"/>
<path d="M156.179 30.5445V30.9923C156.179 33.0491 157.48 33.6927 158.725 33.6927C160.251 33.6927 161.426 33.0491 161.426 31.2441C161.426 27.886 154.626 28.2638 154.626 23.7164C154.626 21.03 156.529 19.6028 159.075 19.6028C161.846 19.6028 163.399 20.946 163.273 24.0382H161.258C161.286 22.3732 160.754 21.2958 158.921 21.2958C157.774 21.2958 156.599 21.8835 156.599 23.5205C156.599 26.8506 163.399 26.3749 163.399 31.1742C163.399 34.3643 161.188 35.3998 158.697 35.3998C154.22 35.4417 154.22 32.0137 154.262 30.5725H156.165L156.179 30.5445Z" fill="#011E41"/>
<path d="M168.212 30.5445V30.9923C168.212 33.0491 169.513 33.6927 170.759 33.6927C172.284 33.6927 173.459 33.0491 173.459 31.2441C173.459 27.886 166.659 28.2638 166.659 23.7164C166.659 21.03 168.562 19.6028 171.108 19.6028C173.879 19.6028 175.432 20.946 175.306 24.0382H173.291C173.319 22.3732 172.787 21.2958 170.955 21.2958C169.807 21.2958 168.632 21.8835 168.632 23.5205C168.632 26.8506 175.432 26.3749 175.432 31.1742C175.432 34.3643 173.221 35.3998 170.731 35.3998C166.253 35.4417 166.253 32.0137 166.295 30.5725H168.198L168.212 30.5445Z" fill="#011E41"/>
<path d="M180.581 35.05H178.65V19.9106H180.581V35.064V35.05Z" fill="#011E41"/>
<path d="M184.065 29.5092V24.542C184.065 21.5198 185.618 19.5889 188.836 19.5889C192.054 19.5889 193.593 21.5198 193.593 24.542V29.5092C193.593 33.7068 192.04 35.3718 188.836 35.3718C185.632 35.3718 184.065 33.7068 184.065 29.5092ZM191.621 29.5932V24.4721C191.621 21.2959 189.438 21.1979 188.822 21.1979C188.207 21.1979 186.024 21.2959 186.024 24.4721V29.5932C186.024 32.9093 186.989 33.7488 188.822 33.7488C190.655 33.7488 191.621 32.9093 191.621 29.5932Z" fill="#011E41"/>
<path d="M207.417 19.9106V35.064H204.773L198.798 21.9255H198.756V35.064H197.035V19.9106H199.764L205.654 32.8812H205.696V19.9106H207.417Z" fill="#011E41"/>
<path d="M222.249 24.0802C222.263 23.2267 222.207 22.3592 221.801 21.8835C221.396 21.3938 220.5 21.2259 220.108 21.2259C218.513 21.2259 217.884 22.1913 217.828 22.4012C217.772 22.5691 217.38 22.9469 217.38 25.5494V29.6071C217.38 33.3149 218.597 33.7627 220.094 33.7627C220.682 33.7627 222.459 33.5528 222.487 30.6005H224.474C224.558 35.3858 221.172 35.3858 220.192 35.3858C218.303 35.3858 215.407 35.2598 215.407 29.3832V25.1016C215.407 20.8201 217.296 19.6028 220.276 19.6028C223.256 19.6028 224.432 21.1559 224.236 24.0942H222.249V24.0802Z" fill="#011E41"/>
<path d="M227.482 35.05V19.9106H235.29V21.5897H229.413V26.4589H234.87V28.1379H229.413V33.3849H235.416V35.064H227.482V35.05Z" fill="#011E41"/>
<path d="M248.764 19.9106V35.064H246.119L240.131 21.9255H240.089V35.064H238.368V19.9106H241.096L246.987 32.8812H247.029V19.9106H248.75H248.764Z" fill="#011E41"/>
<path d="M261.343 19.9106V21.5897H257.355V35.064H255.424V21.5897H251.437V19.9106H261.343Z" fill="#011E41"/>
<path d="M263.973 35.05V19.9106H271.781V21.5897H265.904V26.4589H271.361V28.1379H265.904V33.3849H271.907V35.064H263.973V35.05Z" fill="#011E41"/>
<path d="M276.706 28.096V35.064H274.775V19.9106H280.008C282.695 19.9106 283.632 21.7996 283.632 23.6885C283.632 25.4795 282.639 26.8367 280.862 27.1585V27.2005C282.611 27.4803 283.24 28.068 283.338 31.1042C283.352 31.7479 283.576 34.1265 283.87 35.064H281.855C281.309 34.0146 281.435 32.0417 281.267 30.0269C281.128 28.1799 279.63 28.096 278.987 28.096H276.72H276.706ZM276.706 26.4169H279.602C280.988 26.4169 281.659 25.2276 281.659 23.8984C281.659 22.807 281.114 21.5897 279.616 21.5897H276.706V26.4169Z" fill="#011E41"/>
<path d="M82.1471 0.279785H81.4475V48.7761H82.1471V0.279785Z" fill="#011E41"/>
<path d="M33.9026 40.3109L20.0226 21.3378V35.1479H25.5494V48.7761H0V35.1479H5.17704V13.908H0V0.279785H20.0645L33.9026 19.3929L47.7547 0.279785H67.8053V13.908H62.6282V35.1339H67.8053V48.7621H42.2698V35.1339H47.7827V21.3378L33.8886 40.3109H33.9026Z" fill="#F3C300"/>
<path d="M263.204 48.7621V48.2864C263.805 48.2444 264.281 48.2024 264.281 47.6987C264.281 47.5168 264.225 47.3349 264.183 47.167L263.917 46.2576H260.769L260.489 47.0271C260.433 47.223 260.377 47.3909 260.377 47.5868C260.377 48.2164 261.049 48.2584 261.594 48.2864V48.7621H257.915V48.2864C258.852 48.2444 259.16 48.0625 259.496 47.1251L261.916 40.5068L261.776 40.297C262.812 39.9612 263.106 39.8072 263.553 39.4714C263.721 40.0731 263.749 40.157 263.959 40.7867L265.932 46.8592C266.282 47.9366 266.45 48.2024 267.387 48.3004V48.7761H263.217L263.204 48.7621ZM262.406 41.5982L261.091 45.2921H263.665L262.406 41.5982ZM231.33 46.7753C230.938 47.4189 229.986 49 227.524 49C224.837 49 223.088 47.0131 223.088 44.4106C223.088 41.99 224.558 39.6114 227.58 39.6114C229.161 39.6114 230.014 40.283 230.532 40.6887L231.134 40.1291L231.19 42.8435L230.798 42.9135C230.644 42.3958 230.42 41.976 229.833 41.3464C229.553 41.0525 228.895 40.4789 227.972 40.4789C226.363 40.4789 225.089 41.7941 225.089 44.1168C225.089 46.0757 226.139 47.9226 228.196 47.9226C229.763 47.9226 230.35 47.0551 230.812 46.3835L231.344 46.7893L231.33 46.7753ZM232.827 48.7621V48.2864C233.834 48.2024 233.848 47.9786 233.848 47.1251C233.848 46.8172 233.848 46.4954 233.848 46.1736V42.4237C233.848 41.8361 233.848 41.2624 233.806 40.9826C233.75 40.4509 233.498 40.3809 232.813 40.311V39.8352H236.633V40.311C235.877 40.3949 235.611 40.4089 235.513 40.9126C235.443 41.2064 235.443 41.8641 235.443 42.3958V43.6271C236.213 43.669 236.745 43.683 237.5 43.683C238.256 43.683 238.857 43.669 239.613 43.6271V42.1299C239.613 40.5068 239.585 40.4369 238.368 40.3249V39.8492H242.243V40.3249C241.208 40.4509 241.208 40.4649 241.208 42.1579V45.9218C241.208 46.2716 241.208 47.4049 241.264 47.6708C241.32 48.1325 241.586 48.2304 242.257 48.2864V48.7621H238.382V48.2864C239.277 48.1885 239.515 48.1605 239.599 47.5448C239.627 47.293 239.627 46.9432 239.627 46.2995V44.6625C238.913 44.6345 238.326 44.6065 237.598 44.6065C236.871 44.6065 236.227 44.6345 235.457 44.6625V46.2995C235.457 48.1605 235.499 48.1605 236.647 48.2864V48.7621H232.827ZM243.853 48.7621V48.2864C244.72 48.1745 244.902 48.0765 244.916 47.1391V42.3818C244.916 40.5208 244.916 40.4789 243.853 40.3249V39.8492H247.56V40.3249C246.511 40.4229 246.511 40.4789 246.511 42.3818V45.9917C246.511 46.3135 246.511 47.307 246.553 47.5728C246.609 48.1185 246.875 48.2444 247.56 48.3004V48.7761H243.853V48.7621ZM218.415 48.7621V48.2864C219.283 48.1745 219.465 48.0765 219.479 47.1391V42.3818C219.479 40.5208 219.479 40.4789 218.415 40.3249V39.8492H222.123V40.3249C221.074 40.4229 221.074 40.4789 221.074 42.3818V45.9917C221.074 46.3135 221.088 47.307 221.116 47.5728C221.172 48.1185 221.423 48.2444 222.123 48.3004V48.7761H218.415V48.7621ZM212.79 48.7621V48.2864C213.91 48.2164 213.91 48.1605 213.924 46.5094V42.018L210.803 48.8881H210.02L207.152 41.934L207.082 47.181C207.082 48.0485 207.18 48.2164 208.131 48.3004V48.7761H205.039V48.3004C205.752 48.2584 206.046 48.1605 206.088 47.5588C206.116 47.321 206.158 46.5654 206.158 46.0757L206.284 42.3398C206.284 42.046 206.284 41.6122 206.284 41.3044C206.284 40.4229 206.116 40.3529 205.305 40.3389V39.8632H208.117L210.901 46.6493L213.966 39.8632H216.68V40.3949C215.617 40.4509 215.603 40.5768 215.617 41.962V45.6419C215.617 46.2576 215.617 47.0131 215.673 47.4609C215.729 48.1185 215.981 48.2444 216.68 48.3144V48.7901H212.776L212.79 48.7621ZM267.975 48.7621V48.2864C268.716 48.2444 268.982 48.2304 269.094 47.7267C269.22 47.1391 269.262 41.8361 269.262 40.9126C268.772 40.4509 268.562 40.3669 267.975 40.311V39.8352H270.661C271.403 40.8986 271.571 41.1365 272.886 42.7735L275.377 45.8658V41.8641C275.377 40.4509 275.321 40.3669 273.907 40.3249V39.8492H277.433V40.3249C276.454 40.3249 276.37 40.5348 276.356 41.99L276.23 48.8881H275.698L274.901 47.8946C274.495 47.3909 274.089 46.8872 273.684 46.3835L270.158 42.032V46.6633C270.158 48.1045 270.255 48.1605 271.627 48.3004V48.7761H267.975V48.7621ZM193.481 44.2847C193.481 47.3769 191.383 48.986 189.004 48.986C186.401 48.986 184.373 47.1111 184.373 44.2707C184.373 41.8361 186.01 39.6253 188.878 39.6393C191.578 39.6393 193.467 41.5702 193.467 44.2847H193.481ZM189.018 48.1605C189.522 48.1605 190.235 47.8946 190.795 47.0551C191.425 46.0897 191.55 45.1942 191.522 44.0328C191.481 42.8855 191.159 41.8921 190.515 41.1925C190.221 40.8846 189.662 40.4369 188.92 40.4509C188.178 40.4509 187.619 40.9266 187.353 41.2344C186.723 41.948 186.429 42.9554 186.429 44.1028C186.429 45.2501 186.583 46.1456 187.241 47.0971C187.815 47.9226 188.542 48.1465 189.046 48.1465L189.018 48.1605ZM194.377 48.2584V48.7481H198.071V48.2584C197.147 48.1745 197.035 48.0905 197.007 47.1111V44.5645H198.001C198.994 44.5645 199.526 44.6625 199.596 45.6559H200.03V42.7036H199.596C199.54 43.669 199.288 43.767 198.197 43.767H197.021V40.6747C197.343 40.6328 197.511 40.6188 198.085 40.6188C199.834 40.6188 200.393 40.6188 200.631 42.004H201.065L200.925 39.8212H194.377V40.297C195.02 40.3669 195.3 40.3949 195.384 40.8147C195.44 41.0945 195.454 42.0739 195.454 42.4377V45.572C195.454 45.8098 195.44 46.8872 195.426 47.1111C195.398 48.0905 195.286 48.1745 194.363 48.2584H194.377ZM117.617 48.7481V48.2584C118.498 48.1465 118.666 48.0485 118.68 47.1111V42.3538C118.68 40.4929 118.68 40.4369 117.617 40.297V39.8072H121.325V40.297C120.275 40.3949 120.275 40.4509 120.275 42.3538V45.9637C120.275 46.2715 120.275 47.279 120.317 47.5448C120.387 48.0905 120.639 48.2164 121.325 48.2584V48.7481H117.617ZM156.962 48.7481V48.2584C157.83 48.1465 158.012 48.0485 158.026 47.1111V42.3538C158.026 40.4929 158.026 40.4369 156.962 40.297V39.8072H160.67V40.297C159.621 40.3949 159.621 40.4509 159.621 42.3538V45.9637C159.621 46.2715 159.621 47.279 159.663 47.5448C159.719 48.0905 159.971 48.2164 160.67 48.2584V48.7481H156.962ZM106.745 48.7481V48.2584C107.487 48.2164 107.752 48.2024 107.864 47.6987C107.99 47.0971 108.032 41.8081 108.032 40.8846C107.542 40.4369 107.333 40.3389 106.745 40.297V39.8072H109.431C110.173 40.8706 110.341 41.1085 111.656 42.7456L114.147 45.8378V41.8361C114.147 40.4229 114.091 40.3389 112.678 40.297V39.8072H116.19V40.297C115.21 40.297 115.126 40.5068 115.126 41.962L115 48.8601H114.469L113.671 47.8666C113.265 47.3629 112.859 46.8592 112.454 46.3555L108.928 42.004V46.6353C108.928 48.0765 109.026 48.1325 110.397 48.2584V48.7481H106.745ZM149.574 45.9637L150.036 45.9078C150.526 47.3629 151.351 48.1465 152.695 48.1465C153.646 48.1465 154.486 47.7407 154.486 46.7753C154.486 45.7678 153.506 45.3621 153.086 45.1802C152.737 45.0403 152.359 44.9283 151.995 44.7884C151.267 44.5225 149.882 43.9629 149.882 42.2279C149.882 40.4929 151.198 39.6253 152.723 39.6253C153.324 39.6253 154.01 39.7513 154.779 40.241L155.325 39.8492L155.619 42.4937L155.171 42.5777C155.017 41.99 154.905 41.7241 154.556 41.2624C154.122 40.7027 153.52 40.4509 152.807 40.4509C151.855 40.4509 151.309 40.9126 151.309 41.6122C151.309 42.6756 152.359 43.0254 153.352 43.3472C153.856 43.5151 154.276 43.655 154.64 43.8649C155.353 44.2847 155.927 45.0682 155.927 46.1456C155.927 47.6987 154.654 48.972 152.779 48.972C151.561 48.972 150.82 48.4963 150.47 48.2584L149.728 47.7267L149.602 45.9637H149.574ZM164.252 48.7481V48.3704C165.078 48.3704 165.301 48.0625 165.301 47.3489V40.7727H164.196C163.189 40.7727 162.517 40.7307 162.433 42.3258H161.971L162.041 39.8212H170.157L170.227 42.3258H169.751C169.681 40.7307 169.009 40.7727 168.002 40.7727H166.897V47.3489C166.897 48.0625 167.12 48.3564 167.946 48.3704V48.7481H164.266H164.252ZM99.9028 39.8212V40.311C98.7135 40.3949 98.7135 40.4369 98.6995 42.3398V44.4386C98.6995 45.53 98.7275 46.4674 99.3012 47.307C99.7629 47.9646 100.532 48.0625 100.924 48.0625C102.198 48.0625 102.911 47.4049 103.205 46.3415C103.457 45.516 103.471 43.9489 103.471 42.8995C103.471 42.5777 103.471 41.5003 103.471 41.2204C103.415 40.4089 102.995 40.3809 102.212 40.3249V39.8352H105.612V40.3249C104.772 40.311 104.604 40.4929 104.548 41.3883C104.548 41.5982 104.436 44.0748 104.422 44.4666C104.394 45.1382 104.352 45.8238 104.212 46.4674C103.611 48.8741 101.26 49 100.644 49C100.155 49 99.1333 48.93 98.3077 48.3704C96.9785 47.4749 96.9645 46.1316 96.9645 44.6905V42.6616C96.9645 41.6962 96.9645 41.2624 96.9225 41.0385C96.8526 40.4789 96.5727 40.3669 95.9011 40.3389V39.8492H99.9168L99.9028 39.8212ZM131.553 39.8212V40.311C130.699 40.4369 130.573 40.6747 129.846 42.4517L127.131 48.93H126.656L124.221 42.3398C123.619 40.6468 123.535 40.4369 122.64 40.311V39.8212H126.879V40.311C126.152 40.3389 125.69 40.3669 125.69 40.8846C125.69 41.1365 125.746 41.3464 125.998 42.1019L127.551 46.6493L129.37 41.948C129.482 41.6402 129.636 41.2204 129.636 40.9966C129.636 40.3529 129.006 40.3249 128.447 40.311V39.8212H131.567H131.553ZM173.879 48.7481V48.2584C174.578 48.1885 174.844 48.1605 175.012 47.9786C175.222 47.7827 175.222 47.5588 175.222 46.5794V45.0123L172.857 41.3324C172.214 40.3669 172.2 40.3389 171.346 40.297V39.8072H175.991V40.297C175.054 40.3249 174.634 40.3529 174.634 40.7727C174.634 41.0106 174.802 41.2904 175.026 41.6682L176.383 43.9069L177.642 41.6822C177.866 41.2344 177.992 40.9826 177.992 40.7727C177.992 40.3389 177.628 40.3389 176.999 40.297V39.8072H180.483V40.297C179.587 40.3249 179.321 40.5908 178.3 42.2558L176.915 44.5785V46.4395C176.915 48.0625 176.915 48.1885 178.258 48.2584V48.7481H173.865H173.879ZM139.192 48.7481C139.192 48.1045 139.304 47.0411 139.374 46.4395H138.941C138.633 48.0345 137.737 47.9506 136.45 47.9506C135.261 47.9506 135.023 47.6288 135.023 47.0551V44.5645H135.988C137.094 44.5645 137.401 44.6625 137.401 45.6559H137.835V42.7036H137.401C137.317 43.5011 137.15 43.767 136.002 43.767H135.023V40.6188H136.114C137.639 40.6188 138.171 40.7307 138.381 41.948H138.787L138.731 39.8212H132.378V40.297C133.022 40.3669 133.302 40.3949 133.386 40.8287C133.442 41.1085 133.456 42.0879 133.456 42.4377V45.572C133.456 45.8098 133.456 46.8872 133.442 47.0971C133.414 48.0765 133.302 48.1605 132.378 48.2444V48.7341H139.178L139.192 48.7481ZM257.453 44.8164V45.2921C256.641 45.3341 256.641 45.5719 256.613 47.265V47.9366C255.928 48.3703 254.934 48.986 253.171 48.986C250.093 48.986 248.624 46.6633 248.624 44.3127C248.624 41.4583 250.555 39.5974 252.989 39.5974C254.514 39.5974 255.396 40.171 256.124 40.6048L256.585 40.0731L256.655 42.8715L256.291 42.9415C256.11 42.4098 255.83 41.7941 255.158 41.1225C254.864 40.8287 254.291 40.4649 253.395 40.4649C251.842 40.4649 250.541 41.7801 250.541 44.3546C250.541 46.4115 251.548 48.1605 253.283 48.1605C254.277 48.1605 254.794 47.4609 254.836 47.4049C254.99 47.167 255.032 46.9572 255.018 46.5654C254.976 45.432 254.822 45.404 253.829 45.3061V44.8304H257.425L257.453 44.8164ZM143.348 43.9629C143.586 44.0188 143.922 44.0468 144.188 44.0468C145.195 44.0468 145.965 43.2493 146.006 42.5357C146.062 41.5003 145.545 40.6048 143.894 40.6048C143.67 40.6048 143.53 40.6048 143.348 40.6608V43.9629ZM143.348 45.9078C143.348 47.9506 143.348 48.2304 144.439 48.2584V48.7481H140.704V48.2584C141.669 48.1885 141.767 48.0345 141.781 47.0691C141.781 46.7053 141.781 46.2855 141.781 45.9218V42.6896C141.781 41.6122 141.781 41.2344 141.725 40.9546C141.655 40.4649 141.417 40.3669 140.69 40.311V39.8352H144.733C146.93 39.8352 147.63 40.8986 147.63 42.1299C147.63 42.9974 147.098 44.1168 145.867 44.4946L147.448 47.251C148.021 48.3004 148.315 48.5383 149.043 48.6502V48.944C148.847 48.944 148.665 48.972 148.455 48.972C146.776 48.972 146.076 48.3983 145.363 46.8872L144.873 45.8378C144.341 44.7184 144.174 44.7884 143.32 44.7604V45.9218L143.348 45.9078Z" fill="#011E41"/>
</g>
<defs>
<clipPath id="clip0_295_564">
<rect width="283.87" height="49" fill="white"/>
</clipPath>
</defs>
</svg>
